<svg xmlns="http://www.w3.org/2000/svg" viewBox="0 0 1400 720" width="100%" role="img" aria-label="SalonRink 予約フロー 5ステップ">
  <defs>
    <linearGradient id="bgGrad" x1="0%" y1="0%" x2="100%" y2="100%">
      <stop offset="0%" stop-color="#FBEAF0" stop-opacity="0.3"/>
      <stop offset="100%" stop-color="#E8EEF5" stop-opacity="0.3"/>
    </linearGradient>
    <linearGradient id="phoneFrame" x1="0%" y1="0%" x2="0%" y2="100%">
      <stop offset="0%" stop-color="#2a3d5f"/>
      <stop offset="100%" stop-color="#1a2c4f"/>
    </linearGradient>
    <linearGradient id="screenBg" x1="0%" y1="0%" x2="0%" y2="100%">
      <stop offset="0%" stop-color="#fdfaf6"/>
      <stop offset="100%" stop-color="#faf7f2"/>
    </linearGradient>
    <linearGradient id="ctaGrad" x1="0%" y1="0%" x2="100%" y2="0%">
      <stop offset="0%" stop-color="#f5b8b8"/>
      <stop offset="100%" stop-color="#d88896"/>
    </linearGradient>
    <filter id="phoneShadow" x="-20%" y="-10%" width="140%" height="120%">
      <feGaussianBlur in="SourceAlpha" stdDeviation="8"/>
      <feOffset dx="0" dy="6"/>
      <feComponentTransfer><feFuncA type="linear" slope="0.15"/></feComponentTransfer>
      <feMerge><feMergeNode/><feMergeNode in="SourceGraphic"/></feMerge>
    </filter>
  </defs>

  <!-- 背景 -->
  <rect width="1400" height="720" fill="url(#bgGrad)" rx="24"/>

  <!-- 接続線(矢印) -->
  <g stroke="#d88896" stroke-width="2" stroke-dasharray="4,4" fill="none" opacity="0.5">
    <path d="M 250 360 L 290 360" marker-end="url(#arrowhead)"/>
    <path d="M 510 360 L 550 360" marker-end="url(#arrowhead)"/>
    <path d="M 770 360 L 810 360" marker-end="url(#arrowhead)"/>
    <path d="M 1030 360 L 1070 360" marker-end="url(#arrowhead)"/>
  </g>
  <defs>
    <marker id="arrowhead" markerWidth="10" markerHeight="10" refX="8" refY="3" orient="auto">
      <path d="M 0 0 L 8 3 L 0 6 Z" fill="#d88896"/>
    </marker>
  </defs>

  <!-- ============ Phone 1: LINE友だち追加 ============ -->
  <g transform="translate(40, 80)">
    <!-- ステップ番号バッジ -->
    <circle cx="105" cy="-20" r="22" fill="#d88896"/>
    <text x="105" y="-14" font-family="-apple-system, sans-serif" font-size="16" font-weight="700" fill="#ffffff" text-anchor="middle">01</text>
    
    <!-- スマホ筐体 -->
    <g filter="url(#phoneShadow)">
      <rect x="0" y="0" width="210" height="430" rx="26" ry="26" fill="url(#phoneFrame)"/>
      <rect x="6" y="6" width="198" height="418" rx="22" ry="22" fill="url(#screenBg)"/>
    </g>
    <rect x="80" y="10" width="50" height="14" rx="7" ry="7" fill="#1a2c4f"/>
    
    <!-- ヘッダー -->
    <text x="105" y="50" font-family="-apple-system, sans-serif" font-size="11" font-weight="600" fill="#1a2c4f" text-anchor="middle">SalonRink 予約</text>
    <line x1="20" y1="62" x2="190" y2="62" stroke="#f0e8df" stroke-width="1"/>
    
    <!-- コンテンツ: QRコード -->
    <text x="105" y="90" font-family="-apple-system, sans-serif" font-size="10" fill="#5a6878" text-anchor="middle">公式アカウントを追加</text>
    
    <!-- QRコード風モチーフ -->
    <rect x="55" y="110" width="100" height="100" rx="6" fill="#ffffff" stroke="#1a2c4f" stroke-width="1.5"/>
    <!-- QRパターン(ランダムに見える格子) -->
    <g fill="#1a2c4f">
      <rect x="62" y="117" width="18" height="18"/>
      <rect x="130" y="117" width="18" height="18"/>
      <rect x="62" y="185" width="18" height="18"/>
      <rect x="68" y="123" width="6" height="6" fill="#ffffff"/>
      <rect x="136" y="123" width="6" height="6" fill="#ffffff"/>
      <rect x="68" y="191" width="6" height="6" fill="#ffffff"/>
      <rect x="86" y="120" width="4" height="4"/>
      <rect x="94" y="120" width="4" height="4"/>
      <rect x="102" y="120" width="4" height="4"/>
      <rect x="86" y="128" width="4" height="4"/>
      <rect x="102" y="128" width="4" height="4"/>
      <rect x="118" y="124" width="4" height="4"/>
      <rect x="86" y="140" width="4" height="4"/>
      <rect x="94" y="148" width="4" height="4"/>
      <rect x="110" y="144" width="4" height="4"/>
      <rect x="118" y="148" width="4" height="4"/>
      <rect x="86" y="160" width="4" height="4"/>
      <rect x="102" y="160" width="4" height="4"/>
      <rect x="118" y="160" width="4" height="4"/>
      <rect x="86" y="172" width="4" height="4"/>
      <rect x="94" y="180" width="4" height="4"/>
      <rect x="110" y="180" width="4" height="4"/>
      <rect x="86" y="192" width="4" height="4"/>
      <rect x="94" y="192" width="4" height="4"/>
      <rect x="110" y="192" width="4" height="4"/>
      <rect x="118" y="192" width="4" height="4"/>
      <rect x="124" y="148" width="4" height="4"/>
      <rect x="132" y="148" width="4" height="4"/>
      <rect x="140" y="148" width="4" height="4"/>
      <rect x="124" y="160" width="4" height="4"/>
      <rect x="132" y="172" width="4" height="4"/>
      <rect x="140" y="172" width="4" height="4"/>
      <rect x="124" y="180" width="4" height="4"/>
      <rect x="132" y="184" width="4" height="4"/>
      <rect x="140" y="192" width="4" height="4"/>
    </g>
    
    <!-- CTA -->
    <rect x="30" y="240" width="150" height="36" rx="18" fill="url(#ctaGrad)"/>
    <text x="105" y="263" font-family="-apple-system, sans-serif" font-size="12" font-weight="600" fill="#ffffff" text-anchor="middle">友だち追加</text>
    
    <!-- サブテキスト -->
    <text x="105" y="300" font-family="-apple-system, sans-serif" font-size="10" fill="#5a6878" text-anchor="middle">QR・URL・SMS どれでも</text>
    
    <!-- 信頼バッジ -->
    <g transform="translate(45, 320)">
      <rect width="120" height="60" rx="8" fill="#FBEAF0" opacity="0.5"/>
      <text x="60" y="20" font-family="-apple-system, sans-serif" font-size="9" fill="#5a6878" text-anchor="middle">登録済みお客様</text>
      <text x="60" y="42" font-family="-apple-system, sans-serif" font-size="18" font-weight="700" fill="#d88896" text-anchor="middle">2,847</text>
      <text x="60" y="55" font-family="-apple-system, sans-serif" font-size="8" fill="#5a6878" text-anchor="middle">名突破</text>
    </g>
    
    <!-- ステップタイトル(下) -->
    <text x="105" y="475" font-family="-apple-system, sans-serif" font-size="14" font-weight="700" fill="#1a2c4f" text-anchor="middle">LINE友だち追加</text>
    <text x="105" y="495" font-family="-apple-system, sans-serif" font-size="10" fill="#5a6878" text-anchor="middle">QRコード or URLから1タップ</text>
  </g>

  <!-- ============ Phone 2: メニュー選択 ============ -->
  <g transform="translate(300, 80)">
    <circle cx="105" cy="-20" r="22" fill="#d88896"/>
    <text x="105" y="-14" font-family="-apple-system, sans-serif" font-size="16" font-weight="700" fill="#ffffff" text-anchor="middle">02</text>
    
    <g filter="url(#phoneShadow)">
      <rect x="0" y="0" width="210" height="430" rx="26" ry="26" fill="url(#phoneFrame)"/>
      <rect x="6" y="6" width="198" height="418" rx="22" ry="22" fill="url(#screenBg)"/>
    </g>
    <rect x="80" y="10" width="50" height="14" rx="7" ry="7" fill="#1a2c4f"/>
    
    <text x="105" y="50" font-family="-apple-system, sans-serif" font-size="11" font-weight="600" fill="#1a2c4f" text-anchor="middle">メニューを選択</text>
    <line x1="20" y1="62" x2="190" y2="62" stroke="#f0e8df" stroke-width="1"/>
    
    <!-- メニューカード1: カット(選択中) -->
    <g transform="translate(20, 78)">
      <rect width="170" height="56" rx="10" fill="#FBEAF0" stroke="#d88896" stroke-width="2"/>
      <rect x="10" y="10" width="36" height="36" rx="6" fill="#f5b8b8" opacity="0.4"/>
      <text x="56" y="24" font-family="-apple-system, sans-serif" font-size="11" font-weight="700" fill="#1a2c4f">カット</text>
      <text x="56" y="38" font-family="-apple-system, sans-serif" font-size="9" fill="#5a6878">所要 60分</text>
      <text x="160" y="32" font-family="-apple-system, sans-serif" font-size="11" font-weight="700" fill="#d88896" text-anchor="end">¥4,800</text>
      <circle cx="155" cy="46" r="6" fill="#d88896"/>
      <path d="M 152 46 L 155 49 L 159 44" stroke="#ffffff" stroke-width="1.5" fill="none"/>
    </g>
    
    <!-- メニューカード2: カラー -->
    <g transform="translate(20, 144)">
      <rect width="170" height="56" rx="10" fill="#ffffff" stroke="#f0e8df" stroke-width="1"/>
      <rect x="10" y="10" width="36" height="36" rx="6" fill="#E8EEF5"/>
      <text x="56" y="24" font-family="-apple-system, sans-serif" font-size="11" font-weight="700" fill="#1a2c4f">カラー + カット</text>
      <text x="56" y="38" font-family="-apple-system, sans-serif" font-size="9" fill="#5a6878">所要 120分</text>
      <text x="160" y="32" font-family="-apple-system, sans-serif" font-size="11" font-weight="700" fill="#1a2c4f" text-anchor="end">¥12,800</text>
    </g>
    
    <!-- メニューカード3: パーマ -->
    <g transform="translate(20, 210)">
      <rect width="170" height="56" rx="10" fill="#ffffff" stroke="#f0e8df" stroke-width="1"/>
      <rect x="10" y="10" width="36" height="36" rx="6" fill="#C8E6D4"/>
      <text x="56" y="24" font-family="-apple-system, sans-serif" font-size="11" font-weight="700" fill="#1a2c4f">パーマ</text>
      <text x="56" y="38" font-family="-apple-system, sans-serif" font-size="9" fill="#5a6878">所要 90分</text>
      <text x="160" y="32" font-family="-apple-system, sans-serif" font-size="11" font-weight="700" fill="#1a2c4f" text-anchor="end">¥9,800</text>
    </g>
    
    <!-- メニューカード4: トリートメント -->
    <g transform="translate(20, 276)">
      <rect width="170" height="56" rx="10" fill="#ffffff" stroke="#f0e8df" stroke-width="1"/>
      <rect x="10" y="10" width="36" height="36" rx="6" fill="#E0D5F0"/>
      <text x="56" y="24" font-family="-apple-system, sans-serif" font-size="11" font-weight="700" fill="#1a2c4f">トリートメント</text>
      <text x="56" y="38" font-family="-apple-system, sans-serif" font-size="9" fill="#5a6878">所要 30分</text>
      <text x="160" y="32" font-family="-apple-system, sans-serif" font-size="11" font-weight="700" fill="#1a2c4f" text-anchor="end">¥3,200</text>
    </g>
    
    <!-- 次へボタン -->
    <rect x="30" y="350" width="150" height="36" rx="18" fill="#1a2c4f"/>
    <text x="105" y="373" font-family="-apple-system, sans-serif" font-size="12" font-weight="600" fill="#ffffff" text-anchor="middle">次へ</text>
    
    <text x="105" y="475" font-family="-apple-system, sans-serif" font-size="14" font-weight="700" fill="#1a2c4f" text-anchor="middle">メニュー選択</text>
    <text x="105" y="495" font-family="-apple-system, sans-serif" font-size="10" fill="#5a6878" text-anchor="middle">画像と価格でシンプル選択</text>
  </g>

  <!-- ============ Phone 3: 日時選択 ============ -->
  <g transform="translate(560, 80)">
    <circle cx="105" cy="-20" r="22" fill="#d88896"/>
    <text x="105" y="-14" font-family="-apple-system, sans-serif" font-size="16" font-weight="700" fill="#ffffff" text-anchor="middle">03</text>
    
    <g filter="url(#phoneShadow)">
      <rect x="0" y="0" width="210" height="430" rx="26" ry="26" fill="url(#phoneFrame)"/>
      <rect x="6" y="6" width="198" height="418" rx="22" ry="22" fill="url(#screenBg)"/>
    </g>
    <rect x="80" y="10" width="50" height="14" rx="7" ry="7" fill="#1a2c4f"/>
    
    <text x="105" y="50" font-family="-apple-system, sans-serif" font-size="11" font-weight="600" fill="#1a2c4f" text-anchor="middle">日時を選択</text>
    <line x1="20" y1="62" x2="190" y2="62" stroke="#f0e8df" stroke-width="1"/>
    
    <!-- 月表示 -->
    <text x="105" y="85" font-family="-apple-system, sans-serif" font-size="11" font-weight="600" fill="#1a2c4f" text-anchor="middle">2026年 5月</text>
    
    <!-- 曜日ヘッダー -->
    <g transform="translate(20, 100)">
      <text x="12" y="10" font-family="-apple-system, sans-serif" font-size="9" fill="#9ba8b8" text-anchor="middle">日</text>
      <text x="36" y="10" font-family="-apple-system, sans-serif" font-size="9" fill="#9ba8b8" text-anchor="middle">月</text>
      <text x="60" y="10" font-family="-apple-system, sans-serif" font-size="9" fill="#9ba8b8" text-anchor="middle">火</text>
      <text x="84" y="10" font-family="-apple-system, sans-serif" font-size="9" fill="#9ba8b8" text-anchor="middle">水</text>
      <text x="108" y="10" font-family="-apple-system, sans-serif" font-size="9" fill="#9ba8b8" text-anchor="middle">木</text>
      <text x="132" y="10" font-family="-apple-system, sans-serif" font-size="9" fill="#9ba8b8" text-anchor="middle">金</text>
      <text x="156" y="10" font-family="-apple-system, sans-serif" font-size="9" fill="#9ba8b8" text-anchor="middle">土</text>
    </g>
    
    <!-- カレンダーの日付 -->
    <g transform="translate(20, 115)" font-family="-apple-system, sans-serif" font-size="10" fill="#1a2c4f" text-anchor="middle">
      <!-- Week 1 -->
      <text x="12" y="14">1</text>
      <text x="36" y="14">2</text>
      <text x="60" y="14">3</text>
      <text x="84" y="14">4</text>
      <text x="108" y="14">5</text>
      <text x="132" y="14">6</text>
      <text x="156" y="14">7</text>
      <!-- Week 2 -->
      <text x="12" y="36">8</text>
      <text x="36" y="36">9</text>
      <text x="60" y="36">10</text>
      <text x="84" y="36">11</text>
      <text x="108" y="36">12</text>
      <!-- 13日(選択中) -->
      <circle cx="132" cy="32" r="11" fill="#d88896"/>
      <text x="132" y="36" fill="#ffffff" font-weight="700">13</text>
      <text x="156" y="36">14</text>
      <!-- Week 3 -->
      <text x="12" y="58">15</text>
      <text x="36" y="58">16</text>
      <text x="60" y="58">17</text>
      <text x="84" y="58">18</text>
      <text x="108" y="58">19</text>
      <text x="132" y="58">20</text>
      <text x="156" y="58">21</text>
      <!-- Week 4 -->
      <text x="12" y="80">22</text>
      <text x="36" y="80">23</text>
      <text x="60" y="80">24</text>
      <text x="84" y="80">25</text>
      <text x="108" y="80">26</text>
      <text x="132" y="80">27</text>
      <text x="156" y="80">28</text>
    </g>
    
    <!-- 時間スロット -->
    <text x="20" y="240" font-family="-apple-system, sans-serif" font-size="10" font-weight="600" fill="#1a2c4f">空いている時間</text>
    <g transform="translate(20, 250)">
      <!-- 10:00(選択中) -->
      <rect width="50" height="26" rx="6" fill="#d88896"/>
      <text x="25" y="17" font-family="-apple-system, sans-serif" font-size="10" font-weight="600" fill="#ffffff" text-anchor="middle">10:00</text>
      <rect x="58" y="0" width="50" height="26" rx="6" fill="#FBEAF0"/>
      <text x="83" y="17" font-family="-apple-system, sans-serif" font-size="10" fill="#1a2c4f" text-anchor="middle">11:30</text>
      <rect x="116" y="0" width="50" height="26" rx="6" fill="#FBEAF0"/>
      <text x="141" y="17" font-family="-apple-system, sans-serif" font-size="10" fill="#1a2c4f" text-anchor="middle">14:00</text>
    </g>
    <g transform="translate(20, 284)">
      <rect width="50" height="26" rx="6" fill="#FBEAF0"/>
      <text x="25" y="17" font-family="-apple-system, sans-serif" font-size="10" fill="#1a2c4f" text-anchor="middle">15:30</text>
      <rect x="58" y="0" width="50" height="26" rx="6" fill="#FBEAF0"/>
      <text x="83" y="17" font-family="-apple-system, sans-serif" font-size="10" fill="#1a2c4f" text-anchor="middle">17:00</text>
      <rect x="116" y="0" width="50" height="26" rx="6" fill="#f0e8df"/>
      <text x="141" y="17" font-family="-apple-system, sans-serif" font-size="10" fill="#9ba8b8" text-anchor="middle">満</text>
    </g>
    
    <!-- 確定ボタン -->
    <rect x="30" y="350" width="150" height="36" rx="18" fill="#1a2c4f"/>
    <text x="105" y="373" font-family="-apple-system, sans-serif" font-size="12" font-weight="600" fill="#ffffff" text-anchor="middle">確定する</text>
    
    <text x="105" y="475" font-family="-apple-system, sans-serif" font-size="14" font-weight="700" fill="#1a2c4f" text-anchor="middle">日時選択</text>
    <text x="105" y="495" font-family="-apple-system, sans-serif" font-size="10" fill="#5a6878" text-anchor="middle">空き枠をカレンダーから</text>
  </g>

  <!-- ============ Phone 4: 予約完了 ============ -->
  <g transform="translate(820, 80)">
    <circle cx="105" cy="-20" r="22" fill="#d88896"/>
    <text x="105" y="-14" font-family="-apple-system, sans-serif" font-size="16" font-weight="700" fill="#ffffff" text-anchor="middle">04</text>
    
    <g filter="url(#phoneShadow)">
      <rect x="0" y="0" width="210" height="430" rx="26" ry="26" fill="url(#phoneFrame)"/>
      <rect x="6" y="6" width="198" height="418" rx="22" ry="22" fill="url(#screenBg)"/>
    </g>
    <rect x="80" y="10" width="50" height="14" rx="7" ry="7" fill="#1a2c4f"/>
    
    <text x="105" y="50" font-family="-apple-system, sans-serif" font-size="11" font-weight="600" fill="#1a2c4f" text-anchor="middle">予約完了</text>
    <line x1="20" y1="62" x2="190" y2="62" stroke="#f0e8df" stroke-width="1"/>
    
    <!-- 大きなチェックマーク -->
    <circle cx="105" cy="115" r="32" fill="#C8E6D4"/>
    <path d="M 90 115 L 102 127 L 122 105" stroke="#7AB89A" stroke-width="4" fill="none" stroke-linecap="round" stroke-linejoin="round"/>
    
    <text x="105" y="170" font-family="-apple-system, sans-serif" font-size="13" font-weight="700" fill="#1a2c4f" text-anchor="middle">ご予約ありがとう</text>
    <text x="105" y="186" font-family="-apple-system, sans-serif" font-size="13" font-weight="700" fill="#1a2c4f" text-anchor="middle">ございました</text>
    
    <!-- 予約詳細カード -->
    <g transform="translate(20, 200)">
      <rect width="170" height="120" rx="10" fill="#FBEAF0" opacity="0.5"/>
      <text x="14" y="20" font-family="-apple-system, sans-serif" font-size="9" fill="#5a6878">予約番号</text>
      <text x="156" y="20" font-family="-apple-system, sans-serif" font-size="9" font-weight="600" fill="#1a2c4f" text-anchor="end">SR-7855</text>
      <line x1="14" y1="32" x2="156" y2="32" stroke="#ffffff" stroke-width="1"/>
      <text x="14" y="48" font-family="-apple-system, sans-serif" font-size="9" fill="#5a6878">日時</text>
      <text x="156" y="48" font-family="-apple-system, sans-serif" font-size="9" font-weight="600" fill="#1a2c4f" text-anchor="end">5/13(水) 10:00</text>
      <text x="14" y="68" font-family="-apple-system, sans-serif" font-size="9" fill="#5a6878">メニュー</text>
      <text x="156" y="68" font-family="-apple-system, sans-serif" font-size="9" font-weight="600" fill="#1a2c4f" text-anchor="end">カット</text>
      <text x="14" y="88" font-family="-apple-system, sans-serif" font-size="9" fill="#5a6878">スタッフ</text>
      <text x="156" y="88" font-family="-apple-system, sans-serif" font-size="9" font-weight="600" fill="#1a2c4f" text-anchor="end">山田</text>
      <line x1="14" y1="98" x2="156" y2="98" stroke="#ffffff" stroke-width="1"/>
      <text x="14" y="114" font-family="-apple-system, sans-serif" font-size="9" font-weight="600" fill="#1a2c4f">合計</text>
      <text x="156" y="114" font-family="-apple-system, sans-serif" font-size="11" font-weight="700" fill="#d88896" text-anchor="end">¥4,800</text>
    </g>
    
    <!-- LINE通知の予告 -->
    <g transform="translate(20, 332)">
      <rect width="170" height="40" rx="8" fill="#E8F5EE" opacity="0.7"/>
      <text x="14" y="18" font-family="-apple-system, sans-serif" font-size="9" font-weight="600" fill="#1a2c4f">前日にLINEでリマインド</text>
      <text x="14" y="32" font-family="-apple-system, sans-serif" font-size="8" fill="#5a6878">忘れ防止の自動通知が届きます</text>
    </g>
    
    <text x="105" y="475" font-family="-apple-system, sans-serif" font-size="14" font-weight="700" fill="#1a2c4f" text-anchor="middle">予約完了</text>
    <text x="105" y="495" font-family="-apple-system, sans-serif" font-size="10" fill="#5a6878" text-anchor="middle">即座にLINEへ確定通知</text>
  </g>

  <!-- ============ Phone 5: マイページ ============ -->
  <g transform="translate(1080, 80)">
    <circle cx="105" cy="-20" r="22" fill="#d88896"/>
    <text x="105" y="-14" font-family="-apple-system, sans-serif" font-size="16" font-weight="700" fill="#ffffff" text-anchor="middle">05</text>
    
    <g filter="url(#phoneShadow)">
      <rect x="0" y="0" width="210" height="430" rx="26" ry="26" fill="url(#phoneFrame)"/>
      <rect x="6" y="6" width="198" height="418" rx="22" ry="22" fill="url(#screenBg)"/>
    </g>
    <rect x="80" y="10" width="50" height="14" rx="7" ry="7" fill="#1a2c4f"/>
    
    <text x="105" y="50" font-family="-apple-system, sans-serif" font-size="11" font-weight="600" fill="#1a2c4f" text-anchor="middle">マイページ</text>
    <line x1="20" y1="62" x2="190" y2="62" stroke="#f0e8df" stroke-width="1"/>
    
    <!-- プロフィール -->
    <circle cx="105" cy="95" r="22" fill="#FBEAF0"/>
    <text x="105" y="100" font-family="-apple-system, sans-serif" font-size="14" font-weight="700" fill="#d88896" text-anchor="middle">M</text>
    <text x="105" y="135" font-family="-apple-system, sans-serif" font-size="11" font-weight="600" fill="#1a2c4f" text-anchor="middle">松本 様</text>
    
    <!-- 次回予約 -->
    <text x="20" y="160" font-family="-apple-system, sans-serif" font-size="10" font-weight="600" fill="#1a2c4f">次回のご予約</text>
    <g transform="translate(20, 168)">
      <rect width="170" height="60" rx="10" fill="#FBEAF0" opacity="0.5"/>
      <text x="14" y="22" font-family="-apple-system, sans-serif" font-size="11" font-weight="700" fill="#1a2c4f">5/13(水) 10:00</text>
      <text x="14" y="38" font-family="-apple-system, sans-serif" font-size="9" fill="#5a6878">カット ・ 山田</text>
      <rect x="14" y="44" width="60" height="12" rx="6" fill="#ffffff"/>
      <text x="44" y="53" font-family="-apple-system, sans-serif" font-size="8" font-weight="600" fill="#d88896" text-anchor="middle">変更・キャンセル</text>
    </g>
    
    <!-- 予約履歴 -->
    <text x="20" y="250" font-family="-apple-system, sans-serif" font-size="10" font-weight="600" fill="#1a2c4f">予約履歴</text>
    <g transform="translate(20, 258)">
      <rect width="170" height="36" rx="8" fill="#ffffff" stroke="#f0e8df" stroke-width="1"/>
      <text x="10" y="16" font-family="-apple-system, sans-serif" font-size="9" font-weight="600" fill="#1a2c4f">3/22(土)</text>
      <text x="10" y="28" font-family="-apple-system, sans-serif" font-size="8" fill="#5a6878">カラー + カット</text>
      <text x="160" y="22" font-family="-apple-system, sans-serif" font-size="9" fill="#5a6878" text-anchor="end">¥12,800</text>
    </g>
    <g transform="translate(20, 300)">
      <rect width="170" height="36" rx="8" fill="#ffffff" stroke="#f0e8df" stroke-width="1"/>
      <text x="10" y="16" font-family="-apple-system, sans-serif" font-size="9" font-weight="600" fill="#1a2c4f">2/15(土)</text>
      <text x="10" y="28" font-family="-apple-system, sans-serif" font-size="8" fill="#5a6878">カット</text>
      <text x="160" y="22" font-family="-apple-system, sans-serif" font-size="9" fill="#5a6878" text-anchor="end">¥4,800</text>
    </g>
    <g transform="translate(20, 342)">
      <rect width="170" height="36" rx="8" fill="#ffffff" stroke="#f0e8df" stroke-width="1"/>
      <text x="10" y="16" font-family="-apple-system, sans-serif" font-size="9" font-weight="600" fill="#1a2c4f">1/10(土)</text>
      <text x="10" y="28" font-family="-apple-system, sans-serif" font-size="8" fill="#5a6878">カット + トリートメント</text>
      <text x="160" y="22" font-family="-apple-system, sans-serif" font-size="9" fill="#5a6878" text-anchor="end">¥8,000</text>
    </g>
    
    <text x="105" y="475" font-family="-apple-system, sans-serif" font-size="14" font-weight="700" fill="#1a2c4f" text-anchor="middle">マイページ</text>
    <text x="105" y="495" font-family="-apple-system, sans-serif" font-size="10" fill="#5a6878" text-anchor="middle">履歴管理 + 次回予約</text>
  </g>

  <!-- フッターメッセージ -->
  <g transform="translate(700, 660)">
    <rect x="-280" y="-20" width="560" height="36" rx="18" fill="#FBEAF0" opacity="0.5"/>
    <text x="0" y="3" font-family="-apple-system, sans-serif" font-size="13" font-weight="600" fill="#1a2c4f" text-anchor="middle">所要 90秒 ・ 24時間いつでも予約OK</text>
  </g>
</svg>
